<svg width="176" height="63" viewBox="0 0 176 63" fill="none" xmlns="http://www.w3.org/2000/svg">
<g clip-path="url(#clip0_724_303)">
<path fill-rule="evenodd" clip-rule="evenodd" d="M38.0443 2.91056C34.1636 -0.970207 27.8716 -0.970213 23.9908 2.91055L2.91058 23.9908C-0.970187 27.8716 -0.970193 34.1635 2.91057 38.0443L23.9908 59.1245C27.8716 63.0053 34.1635 63.0053 38.0443 59.1245L59.1246 38.0443C63.0053 34.1635 63.0053 27.8716 59.1246 23.9908L38.0443 2.91056ZM22.4234 33.066C22.4192 33.7914 22.4318 34.521 22.5073 35.2465C22.5201 35.3645 22.5363 35.4825 22.5524 35.5999C22.5678 35.712 22.583 35.8236 22.5953 35.9342C22.535 35.9744 22.4746 35.9717 22.4142 35.969C22.3991 35.9684 22.384 35.9677 22.3689 35.9677H19.7816C19.7705 35.9677 19.7593 35.9672 19.7481 35.9668H19.748C19.7257 35.9658 19.7033 35.9649 19.681 35.9677C19.572 35.9803 19.5384 35.9258 19.5342 35.8209C19.5267 35.6055 19.5147 35.3915 19.5027 35.1772L19.5027 35.177L19.5027 35.1769V35.1769V35.1768C19.4946 35.0326 19.4865 34.8883 19.4797 34.7433C19.477 34.6862 19.4778 34.6291 19.4787 34.5651C19.4792 34.5304 19.4797 34.4937 19.4797 34.4539C19.3745 34.4901 19.3363 34.5546 19.3005 34.6151C19.2906 34.6318 19.2809 34.6482 19.2701 34.6636C18.8465 35.2674 18.3266 35.7455 17.6179 35.9971C17.1776 36.1564 16.7205 36.2151 16.2593 36.2025C15.5884 36.1858 14.93 36.0725 14.3178 35.7706C13.4456 35.3429 12.9047 34.6678 12.7453 33.6991C12.7327 33.6237 12.7202 33.5482 12.6531 33.4979V32.7431C12.7272 32.7042 12.736 32.6326 12.7444 32.5634C12.746 32.5504 12.7475 32.5376 12.7495 32.525C12.9005 31.6402 13.3953 30.9945 14.1626 30.5542C14.7665 30.2061 15.429 30.0258 16.1125 29.9252C17.1021 29.7784 18.0959 29.7658 19.0897 29.9126C19.291 29.942 19.3078 29.9294 19.2868 29.7239C19.2281 29.1536 18.9681 28.7259 18.4356 28.4827C18.184 28.3653 17.9156 28.294 17.6389 28.273C16.5486 28.1934 15.4793 28.3024 14.4604 28.7259C14.3761 28.7624 14.2942 28.8013 14.2129 28.84L14.2128 28.84L14.2127 28.8401L14.2126 28.8401L14.2125 28.8402C14.1443 28.8727 14.0763 28.905 14.0075 28.9356C13.948 28.9025 13.9536 28.8539 13.9587 28.8101C13.96 28.7983 13.9614 28.7869 13.9614 28.7762L13.9601 28.7285L13.9601 28.728V28.7279C13.9437 28.1236 13.9275 27.5231 13.9152 26.9186C13.9111 26.7064 13.9152 26.7048 14.1038 26.631L14.1081 26.6293C14.9342 26.3106 15.7938 26.1345 16.6744 26.059C17.316 26.0045 17.9576 25.9835 18.6033 26.0548C19.3497 26.1387 20.0668 26.3148 20.7209 26.7047C21.656 27.2625 22.1676 28.0969 22.3563 29.1494C22.4108 29.4388 22.4234 29.7323 22.4234 30.0258V33.066ZM15.8735 33.1834C15.9993 33.5817 16.3012 33.7998 16.687 33.892C18.2637 34.2778 19.2449 32.9695 19.2952 31.7828C19.2994 31.6906 19.2701 31.6486 19.1694 31.6444C18.9723 31.636 18.7763 31.6266 18.5803 31.6172C18.3842 31.6077 18.1882 31.5983 17.9911 31.5899C17.7395 31.5773 17.4879 31.6067 17.2405 31.6402C16.905 31.6822 16.5822 31.7702 16.3012 31.9673C15.907 32.2399 15.7309 32.7347 15.8735 33.1834ZM31.4935 28.9817L31.4933 28.9816C31.376 28.9229 31.267 28.8685 31.1496 28.8182C30.3948 28.4827 29.6065 28.3737 28.7972 28.5624C27.7698 28.8056 27.0738 29.6107 26.9312 30.6548C26.8599 31.1706 26.8767 31.678 27.0905 32.156C27.4931 33.0576 28.2227 33.544 29.1746 33.6991C29.9713 33.8249 30.7429 33.695 31.4893 33.4056C31.524 33.3921 31.5588 33.3777 31.5927 33.3636C31.6325 33.3471 31.6711 33.3311 31.7073 33.3176C31.7587 33.3313 31.7597 33.359 31.7607 33.3846C31.7609 33.3904 31.7611 33.396 31.7619 33.4014C31.7688 33.6425 31.7752 33.8831 31.7817 34.1235C31.7948 34.6109 31.8079 35.0976 31.8247 35.5861C31.8289 35.7287 31.7828 35.7916 31.6444 35.8335C31.1203 35.9887 30.5877 36.0893 30.0468 36.1522C29.0194 36.2696 28.0047 36.2067 27.0151 35.909C25.8913 35.5693 24.9478 34.9655 24.2685 33.9927C23.7988 33.3176 23.5514 32.5628 23.4592 31.7493C23.3711 30.9358 23.4424 30.1432 23.7024 29.3717C24.172 27.9963 25.1239 27.0654 26.4532 26.516C27.4679 26.0967 28.533 25.9667 29.6275 26.0422C30.2858 26.0883 30.9232 26.2057 31.5312 26.4615C31.7625 26.5589 31.7621 26.5621 31.7391 26.7862L31.7367 26.8096C31.6738 27.4176 31.6151 28.0256 31.5564 28.6337C31.5549 28.6525 31.5539 28.6715 31.5528 28.6908C31.5476 28.7833 31.5421 28.8811 31.4935 28.9817ZM36.1652 27.9043C36.1475 27.9436 36.1271 27.9889 36.0432 27.9962V26.4867C36.0432 26.256 36.0432 26.2518 35.8126 26.2518H33.2253C32.9905 26.2518 32.9863 26.2518 32.9863 26.4825V35.758C32.9863 35.9719 32.9905 35.9761 33.2085 35.9761H36.1229C36.3408 35.9761 36.3409 35.9719 36.3451 35.7583V35.758V35.5819V31.787C36.3451 31.418 36.3745 31.0531 36.4416 30.6883C36.5212 30.2397 36.6596 29.8119 36.9364 29.4387C37.3557 28.8768 38.035 28.7343 38.5969 28.8559C39.0498 28.9523 39.3056 29.2794 39.4565 29.6945C39.5865 30.051 39.6159 30.4283 39.6159 30.8057V35.6574C39.6159 35.6769 39.6163 35.6965 39.6168 35.7161C39.6177 35.7552 39.6187 35.7944 39.6159 35.8335C39.6075 35.9467 39.6662 35.9803 39.7668 35.9719C39.7948 35.9691 39.8227 35.97 39.8507 35.9709C39.8647 35.9714 39.8787 35.9719 39.8926 35.9719H42.7063H42.8573C42.9411 35.9761 42.9789 35.9341 42.9747 35.8503C42.9719 35.8111 42.9728 35.772 42.9738 35.7329C42.9742 35.7133 42.9747 35.6937 42.9747 35.6741C42.9747 35.2631 42.9752 34.8524 42.9756 34.4419C42.9766 33.6215 42.9775 32.8016 42.9747 31.9799C42.9747 31.6192 42.9831 31.2586 43.0334 30.9022C43.0921 30.4745 43.1927 30.0635 43.4024 29.6819C43.6037 29.3213 43.8804 29.0362 44.2872 28.9104C45.2055 28.6294 45.9142 28.9439 46.149 29.9126C46.2119 30.1768 46.2413 30.4409 46.2413 30.7093V35.6616V35.8628C46.2413 35.9299 46.2664 35.9719 46.3419 35.9719H46.4929H49.3317C49.4771 35.9719 49.5443 35.976 49.5751 35.9445C49.6065 35.9124 49.6001 35.8433 49.6001 35.6951C49.6001 35.1386 49.5996 34.5826 49.5991 34.0268C49.5982 32.9156 49.5973 31.805 49.6001 30.6925C49.6001 30.2397 49.5875 29.791 49.5623 29.3381C49.5414 28.9104 49.4743 28.4869 49.3569 28.0759C49.0508 26.9857 48.3421 26.3273 47.2309 26.1135C46.6522 26.0044 46.0693 25.9751 45.4823 26.0631C44.6227 26.1931 43.8679 26.537 43.2514 27.1702C43.0967 27.3281 42.9658 27.505 42.8353 27.6812C42.7925 27.739 42.7498 27.7967 42.7063 27.8537C42.6503 27.8109 42.6254 27.7551 42.601 27.7007C42.5944 27.6858 42.5877 27.671 42.5805 27.6566C42.2283 26.9521 41.679 26.4783 40.9409 26.2225C40.182 25.9583 39.4104 25.9541 38.6346 26.1135C37.557 26.3357 36.7057 26.8934 36.1732 27.8872C36.1705 27.8927 36.1679 27.8984 36.1652 27.9043Z" fill="white"/>
<path d="M67.2323 20.5583L69.7763 13.6022H71.2073L73.7512 20.5583H72.3998L71.8433 18.9485H69.1304L68.5639 20.5583H67.2323ZM69.4782 17.9548H71.4955L70.4818 15.063L69.4782 17.9548ZM76.6546 20.6776C76.2174 20.6776 75.8331 20.608 75.5019 20.4689C75.1707 20.3232 74.9057 20.1244 74.7069 19.8727C74.5082 19.6209 74.3889 19.3294 74.3492 18.9982H75.6311C75.6708 19.1903 75.7768 19.3559 75.9491 19.4951C76.128 19.6276 76.3565 19.6938 76.6348 19.6938C76.913 19.6938 77.1151 19.6375 77.2409 19.5249C77.3734 19.4122 77.4397 19.2831 77.4397 19.1373C77.4397 18.9253 77.3469 18.7829 77.1614 18.71C76.9759 18.6305 76.7176 18.5543 76.3863 18.4814C76.1743 18.4351 75.959 18.3788 75.7404 18.3125C75.5218 18.2463 75.3197 18.1635 75.1342 18.0641C74.9553 17.9581 74.8096 17.8256 74.697 17.6666C74.5844 17.501 74.528 17.2989 74.528 17.0604C74.528 16.6232 74.7003 16.2555 75.0448 15.9574C75.3959 15.6592 75.8861 15.5102 76.5155 15.5102C77.0985 15.5102 77.5622 15.646 77.9067 15.9176C78.2579 16.1892 78.4665 16.5635 78.5328 17.0405H77.3304C77.2575 16.6762 76.9826 16.494 76.5056 16.494C76.2671 16.494 76.0816 16.5404 75.9491 16.6331C75.8232 16.7259 75.7603 16.8418 75.7603 16.9809C75.7603 17.1267 75.8563 17.2426 76.0485 17.3287C76.2406 17.4148 76.4956 17.4943 76.8136 17.5672C77.1581 17.6467 77.4728 17.7362 77.7577 17.8355C78.0492 17.9283 78.281 18.0707 78.4533 18.2628C78.6255 18.4483 78.7117 18.7166 78.7117 19.0678C78.7183 19.3725 78.6388 19.6474 78.4732 19.8925C78.3075 20.1377 78.069 20.3298 77.7577 20.4689C77.4463 20.608 77.0786 20.6776 76.6546 20.6776ZM81.8756 20.6776C81.4384 20.6776 81.0541 20.608 80.7229 20.4689C80.3916 20.3232 80.1266 20.1244 79.9279 19.8727C79.7291 19.6209 79.6099 19.3294 79.5701 18.9982H80.8521C80.8918 19.1903 80.9978 19.3559 81.1701 19.4951C81.3489 19.6276 81.5775 19.6938 81.8557 19.6938C82.134 19.6938 82.336 19.6375 82.4619 19.5249C82.5944 19.4122 82.6607 19.2831 82.6607 19.1373C82.6607 18.9253 82.5679 18.7829 82.3824 18.71C82.1969 18.6305 81.9385 18.5543 81.6073 18.4814C81.3953 18.4351 81.18 18.3788 80.9614 18.3125C80.7428 18.2463 80.5407 18.1635 80.3552 18.0641C80.1763 17.9581 80.0306 17.8256 79.918 17.6666C79.8053 17.501 79.749 17.2989 79.749 17.0604C79.749 16.6232 79.9213 16.2555 80.2658 15.9574C80.6169 15.6592 81.1071 15.5102 81.7365 15.5102C82.3195 15.5102 82.7832 15.646 83.1277 15.9176C83.4788 16.1892 83.6875 16.5635 83.7538 17.0405H82.5513C82.4785 16.6762 82.2035 16.494 81.7265 16.494C81.4881 16.494 81.3026 16.5404 81.1701 16.6331C81.0442 16.7259 80.9812 16.8418 80.9812 16.9809C80.9812 17.1267 81.0773 17.2426 81.2694 17.3287C81.4616 17.4148 81.7166 17.4943 82.0346 17.5672C82.3791 17.6467 82.6938 17.7362 82.9787 17.8355C83.2701 17.9283 83.502 18.0707 83.6743 18.2628C83.8465 18.4483 83.9326 18.7166 83.9326 19.0678C83.9393 19.3725 83.8598 19.6474 83.6941 19.8925C83.5285 20.1377 83.29 20.3298 82.9787 20.4689C82.6673 20.608 82.2996 20.6776 81.8756 20.6776ZM87.4245 20.6776C86.9475 20.6776 86.5169 20.5683 86.1327 20.3497C85.755 20.131 85.4536 19.8296 85.2284 19.4454C85.0097 19.0545 84.9004 18.604 84.9004 18.0939C84.9004 17.5838 85.0131 17.1366 85.2383 16.7524C85.4635 16.3615 85.765 16.0567 86.1426 15.8381C86.5268 15.6195 86.9575 15.5102 87.4345 15.5102C87.9048 15.5102 88.3288 15.6195 88.7064 15.8381C89.0907 16.0567 89.3921 16.3615 89.6107 16.7524C89.836 17.1366 89.9486 17.5838 89.9486 18.0939C89.9486 18.604 89.836 19.0545 89.6107 19.4454C89.3921 19.8296 89.0907 20.131 88.7064 20.3497C88.3222 20.5683 87.8949 20.6776 87.4245 20.6776ZM87.4245 19.5746C87.7558 19.5746 88.0439 19.452 88.2891 19.2069C88.5342 18.9551 88.6567 18.5841 88.6567 18.0939C88.6567 17.6037 88.5342 17.236 88.2891 16.9909C88.0439 16.7391 87.7591 16.6132 87.4345 16.6132C87.0966 16.6132 86.8051 16.7391 86.56 16.9909C86.3215 17.236 86.2022 17.6037 86.2022 18.0939C86.2022 18.5841 86.3215 18.9551 86.56 19.2069C86.8051 19.452 87.0933 19.5746 87.4245 19.5746ZM93.5006 20.6776C92.9972 20.6776 92.5533 20.5683 92.169 20.3497C91.7848 20.131 91.4801 19.8263 91.2548 19.4354C91.0362 19.0446 90.9269 18.5974 90.9269 18.0939C90.9269 17.5904 91.0362 17.1432 91.2548 16.7524C91.4801 16.3615 91.7848 16.0567 92.169 15.8381C92.5533 15.6195 92.9972 15.5102 93.5006 15.5102C94.13 15.5102 94.66 15.6758 95.0906 16.0071C95.5212 16.3317 95.7962 16.7822 95.9154 17.3585H94.5739C94.5076 17.12 94.3751 16.9345 94.1764 16.802C93.9843 16.6629 93.7557 16.5934 93.4907 16.5934C93.1396 16.5934 92.8415 16.7259 92.5963 16.9909C92.3512 17.2558 92.2287 17.6235 92.2287 18.0939C92.2287 18.5643 92.3512 18.9319 92.5963 19.1969C92.8415 19.4619 93.1396 19.5944 93.4907 19.5944C93.7557 19.5944 93.9843 19.5282 94.1764 19.3957C94.3751 19.2632 94.5076 19.0744 94.5739 18.8293H95.9154C95.7962 19.3857 95.5212 19.8329 95.0906 20.1708C94.66 20.5087 94.13 20.6776 93.5006 20.6776ZM97.7301 14.8643C97.4982 14.8643 97.3061 14.7947 97.1537 14.6556C97.0079 14.5165 96.9351 14.3409 96.9351 14.1289C96.9351 13.9169 97.0079 13.7447 97.1537 13.6122C97.3061 13.473 97.4982 13.4035 97.7301 13.4035C97.9619 13.4035 98.1507 13.473 98.2965 13.6122C98.4489 13.7447 98.525 13.9169 98.525 14.1289C98.525 14.3409 98.4489 14.5165 98.2965 14.6556C98.1507 14.7947 97.9619 14.8643 97.7301 14.8643ZM97.0941 20.5583V15.6294H98.3661V20.5583H97.0941ZM101.393 20.6776C100.969 20.6776 100.621 20.6113 100.35 20.4789C100.078 20.3397 99.8759 20.1575 99.7434 19.9323C99.6109 19.7071 99.5446 19.4586 99.5446 19.187C99.5446 18.7299 99.7235 18.3589 100.081 18.074C100.439 17.7891 100.976 17.6467 101.691 17.6467H102.943V17.5275C102.943 17.1896 102.847 16.9412 102.655 16.7822C102.463 16.6232 102.224 16.5437 101.94 16.5437C101.681 16.5437 101.456 16.6066 101.264 16.7325C101.072 16.8517 100.952 17.0306 100.906 17.2691H99.6639C99.697 16.9114 99.8163 16.6 100.022 16.335C100.234 16.07 100.505 15.8679 100.836 15.7288C101.168 15.5831 101.539 15.5102 101.949 15.5102C102.652 15.5102 103.205 15.6857 103.609 16.0369C104.013 16.388 104.215 16.8849 104.215 17.5275V20.5583H103.132L103.013 19.7634C102.867 20.0284 102.662 20.247 102.397 20.4192C102.138 20.5915 101.804 20.6776 101.393 20.6776ZM101.681 19.6839C102.046 19.6839 102.327 19.5646 102.526 19.3261C102.731 19.0876 102.86 18.7928 102.913 18.4417H101.83C101.492 18.4417 101.251 18.5046 101.105 18.6305C100.959 18.7498 100.886 18.8988 100.886 19.0777C100.886 19.2698 100.959 19.4189 101.105 19.5249C101.251 19.6309 101.443 19.6839 101.681 19.6839ZM107.557 20.5583C107.04 20.5583 106.626 20.4325 106.315 20.1807C106.004 19.929 105.848 19.4818 105.848 18.8392V16.6927H105.003V15.6294H105.848L105.997 14.3078H107.12V15.6294H108.452V16.6927H107.12V18.8491C107.12 19.0876 107.17 19.2532 107.269 19.346C107.375 19.4321 107.554 19.4752 107.806 19.4752H108.422V20.5583H107.557ZM110.229 14.8643C109.997 14.8643 109.805 14.7947 109.653 14.6556C109.507 14.5165 109.434 14.3409 109.434 14.1289C109.434 13.9169 109.507 13.7447 109.653 13.6122C109.805 13.473 109.997 13.4035 110.229 13.4035C110.461 13.4035 110.65 13.473 110.796 13.6122C110.948 13.7447 111.024 13.9169 111.024 14.1289C111.024 14.3409 110.948 14.5165 110.796 14.6556C110.65 14.7947 110.461 14.8643 110.229 14.8643ZM109.593 20.5583V15.6294H110.865V20.5583H109.593ZM114.558 20.6776C114.081 20.6776 113.65 20.5683 113.266 20.3497C112.889 20.131 112.587 19.8296 112.362 19.4454C112.143 19.0545 112.034 18.604 112.034 18.0939C112.034 17.5838 112.147 17.1366 112.372 16.7524C112.597 16.3615 112.899 16.0567 113.276 15.8381C113.66 15.6195 114.091 15.5102 114.568 15.5102C115.038 15.5102 115.462 15.6195 115.84 15.8381C116.224 16.0567 116.526 16.3615 116.744 16.7524C116.97 17.1366 117.082 17.5838 117.082 18.0939C117.082 18.604 116.97 19.0545 116.744 19.4454C116.526 19.8296 116.224 20.131 115.84 20.3497C115.456 20.5683 115.028 20.6776 114.558 20.6776ZM114.558 19.5746C114.889 19.5746 115.177 19.452 115.423 19.2069C115.668 18.9551 115.79 18.5841 115.79 18.0939C115.79 17.6037 115.668 17.236 115.423 16.9909C115.177 16.7391 114.893 16.6132 114.568 16.6132C114.23 16.6132 113.939 16.7391 113.694 16.9909C113.455 17.236 113.336 17.6037 113.336 18.0939C113.336 18.5841 113.455 18.9551 113.694 19.2069C113.939 19.452 114.227 19.5746 114.558 19.5746ZM118.219 20.5583V15.6294H119.342L119.442 16.4642C119.594 16.1727 119.813 15.9408 120.098 15.7686C120.389 15.5963 120.73 15.5102 121.121 15.5102C121.731 15.5102 122.204 15.7023 122.542 16.0866C122.88 16.4708 123.049 17.0339 123.049 17.7759V20.5583H121.777V17.8951C121.777 17.4712 121.691 17.1465 121.519 16.9213C121.346 16.696 121.078 16.5834 120.714 16.5834C120.356 16.5834 120.061 16.7093 119.829 16.961C119.604 17.2128 119.491 17.5639 119.491 18.0144V20.5583H118.219ZM126.862 20.5583V16.6927H126.186V15.6294H126.862V15.0531C126.862 14.4568 127.011 14.0328 127.309 13.7811C127.614 13.5294 128.024 13.4035 128.541 13.4035H129.088V14.4866H128.74C128.521 14.4866 128.366 14.5297 128.273 14.6158C128.18 14.702 128.134 14.8477 128.134 15.0531V15.6294H129.197V16.6927H128.134V20.5583H126.862ZM132.375 20.6776C131.898 20.6776 131.468 20.5683 131.084 20.3497C130.706 20.131 130.404 19.8296 130.179 19.4454C129.961 19.0545 129.851 18.604 129.851 18.0939C129.851 17.5838 129.964 17.1366 130.189 16.7524C130.414 16.3615 130.716 16.0567 131.093 15.8381C131.478 15.6195 131.908 15.5102 132.385 15.5102C132.856 15.5102 133.28 15.6195 133.657 15.8381C134.042 16.0567 134.343 16.3615 134.562 16.7524C134.787 17.1366 134.899 17.5838 134.899 18.0939C134.899 18.604 134.787 19.0545 134.562 19.4454C134.343 19.8296 134.042 20.131 133.657 20.3497C133.273 20.5683 132.846 20.6776 132.375 20.6776ZM132.375 19.5746C132.707 19.5746 132.995 19.452 133.24 19.2069C133.485 18.9551 133.608 18.5841 133.608 18.0939C133.608 17.6037 133.485 17.236 133.24 16.9909C132.995 16.7391 132.71 16.6132 132.385 16.6132C132.047 16.6132 131.756 16.7391 131.511 16.9909C131.272 17.236 131.153 17.6037 131.153 18.0939C131.153 18.5841 131.272 18.9551 131.511 19.2069C131.756 19.452 132.044 19.5746 132.375 19.5746ZM136.037 20.5583V15.6294H137.17L137.289 16.5536C137.468 16.2356 137.71 15.9839 138.014 15.7984C138.326 15.6063 138.69 15.5102 139.107 15.5102V16.8517H138.75C138.471 16.8517 138.223 16.8948 138.004 16.9809C137.786 17.067 137.613 17.2161 137.488 17.4281C137.368 17.6401 137.309 17.9349 137.309 18.3125V20.5583H136.037ZM70.8297 33.6776C70.1274 33.6776 69.5246 33.5285 69.0211 33.2304C68.5176 32.9257 68.13 32.505 67.8584 31.9684C67.5868 31.4251 67.451 30.7991 67.451 30.0902C67.451 29.3814 67.5868 28.7553 67.8584 28.2121C68.13 27.6688 68.5176 27.2448 69.0211 26.9401C69.5246 26.6353 70.1274 26.483 70.8297 26.483C71.6644 26.483 72.3468 26.6917 72.8767 27.109C73.4134 27.5198 73.7479 28.0994 73.8804 28.8481H72.4792C72.3931 28.4704 72.2076 28.1756 71.9228 27.9636C71.6445 27.745 71.2735 27.6357 70.8098 27.6357C70.1672 27.6357 69.6637 27.8543 69.2993 28.2916C68.9349 28.7288 68.7528 29.3284 68.7528 30.0902C68.7528 30.8521 68.9349 31.4516 69.2993 31.8889C69.6637 32.3195 70.1672 32.5348 70.8098 32.5348C71.2735 32.5348 71.6445 32.4354 71.9228 32.2367C72.2076 32.0313 72.3931 31.7498 72.4792 31.392H73.8804C73.7479 32.1075 73.4134 32.6673 72.8767 33.0714C72.3468 33.4755 71.6644 33.6776 70.8297 33.6776ZM77.3416 33.6776C76.8646 33.6776 76.434 33.5683 76.0498 33.3497C75.6722 33.131 75.3707 32.8296 75.1455 32.4454C74.9269 32.0545 74.8175 31.604 74.8175 31.0939C74.8175 30.5838 74.9302 30.1366 75.1554 29.7524C75.3807 29.3615 75.6821 29.0567 76.0597 28.8381C76.444 28.6195 76.8746 28.5102 77.3516 28.5102C77.8219 28.5102 78.2459 28.6195 78.6235 28.8381C79.0078 29.0567 79.3092 29.3615 79.5278 29.7524C79.7531 30.1366 79.8657 30.5838 79.8657 31.0939C79.8657 31.604 79.7531 32.0545 79.5278 32.4454C79.3092 32.8296 79.0078 33.131 78.6235 33.3497C78.2393 33.5683 77.812 33.6776 77.3416 33.6776ZM77.3416 32.5746C77.6729 32.5746 77.9611 32.452 78.2062 32.2069C78.4513 31.9551 78.5739 31.5841 78.5739 31.0939C78.5739 30.6037 78.4513 30.236 78.2062 29.9909C77.9611 29.7391 77.6762 29.6132 77.3516 29.6132C77.0137 29.6132 76.7222 29.7391 76.4771 29.9909C76.2386 30.236 76.1193 30.6037 76.1193 31.0939C76.1193 31.5841 76.2386 31.9551 76.4771 32.2069C76.7222 32.452 77.0104 32.5746 77.3416 32.5746ZM81.003 33.5583V28.6294H82.1259L82.2352 29.2952C82.3942 29.0567 82.6029 28.8679 82.8613 28.7288C83.1263 28.5831 83.431 28.5102 83.7755 28.5102C84.5374 28.5102 85.0773 28.805 85.3953 29.3946C85.5742 29.123 85.8126 28.9077 86.1108 28.7487C86.4155 28.5897 86.7468 28.5102 87.1045 28.5102C87.7471 28.5102 88.2407 28.7023 88.5852 29.0866C88.9297 29.4708 89.1019 30.0339 89.1019 30.7759V33.5583H87.8299V30.8951C87.8299 30.4712 87.7471 30.1465 87.5815 29.9213C87.4225 29.696 87.1741 29.5834 86.8362 29.5834C86.4917 29.5834 86.2135 29.7093 86.0015 29.961C85.7961 30.2128 85.6934 30.5639 85.6934 31.0144V33.5583H84.4214V30.8951C84.4214 30.4712 84.3386 30.1465 84.173 29.9213C84.0074 29.696 83.7523 29.5834 83.4078 29.5834C83.0699 29.5834 82.795 29.7093 82.583 29.961C82.3776 30.2128 82.275 30.5639 82.275 31.0144V33.5583H81.003ZM90.3095 35.7446V28.6294H91.4424L91.5815 29.335C91.7405 29.1164 91.9492 28.9242 92.2075 28.7586C92.4725 28.593 92.8137 28.5102 93.2311 28.5102C93.6948 28.5102 94.1089 28.6228 94.4733 28.8481C94.8376 29.0733 95.1258 29.3814 95.3378 29.7722C95.5498 30.1631 95.6558 30.607 95.6558 31.1038C95.6558 31.6007 95.5498 32.0446 95.3378 32.4354C95.1258 32.8197 94.8376 33.1244 94.4733 33.3497C94.1089 33.5683 93.6948 33.6776 93.2311 33.6776C92.8601 33.6776 92.5355 33.608 92.2572 33.4689C91.979 33.3298 91.7537 33.1344 91.5815 32.8826V35.7446H90.3095ZM92.9628 32.5646C93.3669 32.5646 93.7015 32.4288 93.9665 32.1572C94.2315 31.8856 94.3639 31.5344 94.3639 31.1038C94.3639 30.6732 94.2315 30.3188 93.9665 30.0405C93.7015 29.7623 93.3669 29.6232 92.9628 29.6232C92.552 29.6232 92.2142 29.7623 91.9492 30.0405C91.6908 30.3122 91.5616 30.6633 91.5616 31.0939C91.5616 31.5245 91.6908 31.8789 91.9492 32.1572C92.2142 32.4288 92.552 32.5646 92.9628 32.5646ZM98.6404 33.6776C98.0243 33.6776 97.5473 33.4855 97.2094 33.1012C96.8782 32.717 96.7126 32.1539 96.7126 31.4119V28.6294H97.9746V31.2926C97.9746 31.7166 98.0607 32.0413 98.233 32.2665C98.4052 32.4917 98.6768 32.6044 99.0478 32.6044C99.399 32.6044 99.6871 32.4785 99.9124 32.2267C100.144 31.975 100.26 31.6239 100.26 31.1734V28.6294H101.532V33.5583H100.409L100.31 32.7236C100.158 33.0151 99.9356 33.247 99.6441 33.4192C99.3592 33.5915 99.0247 33.6776 98.6404 33.6776ZM105.034 33.5583C104.517 33.5583 104.103 33.4325 103.792 33.1807C103.481 32.929 103.325 32.4818 103.325 31.8392V29.6927H102.48V28.6294H103.325L103.474 27.3078H104.597V28.6294H105.928V29.6927H104.597V31.8491C104.597 32.0876 104.647 32.2532 104.746 32.346C104.852 32.4321 105.031 32.4752 105.283 32.4752H105.899V33.5583H105.034ZM107.706 27.8643C107.474 27.8643 107.282 27.7947 107.13 27.6556C106.984 27.5165 106.911 27.3409 106.911 27.1289C106.911 26.9169 106.984 26.7447 107.13 26.6122C107.282 26.473 107.474 26.4035 107.706 26.4035C107.938 26.4035 108.127 26.473 108.273 26.6122C108.425 26.7447 108.501 26.9169 108.501 27.1289C108.501 27.3409 108.425 27.5165 108.273 27.6556C108.127 27.7947 107.938 27.8643 107.706 27.8643ZM107.07 33.5583V28.6294H108.342V33.5583H107.07ZM109.67 33.5583V28.6294H110.793L110.892 29.4642C111.044 29.1727 111.263 28.9408 111.548 28.7686C111.839 28.5963 112.181 28.5102 112.572 28.5102C113.181 28.5102 113.655 28.7023 113.993 29.0866C114.33 29.4708 114.499 30.0339 114.499 30.7759V33.5583H113.227V30.8951C113.227 30.4712 113.141 30.1465 112.969 29.9213C112.797 29.696 112.528 29.5834 112.164 29.5834C111.806 29.5834 111.512 29.7093 111.28 29.961C111.054 30.2128 110.942 30.5639 110.942 31.0144V33.5583H109.67ZM117.803 32.0876C117.564 32.0876 117.342 32.0611 117.137 32.0081L116.769 32.3758C116.882 32.4354 117.034 32.4851 117.226 32.5249C117.418 32.5646 117.73 32.6044 118.16 32.6441C118.816 32.7037 119.293 32.8594 119.591 33.1112C119.889 33.3629 120.038 33.7107 120.038 34.1546C120.038 34.4461 119.959 34.721 119.8 34.9794C119.641 35.2444 119.396 35.4564 119.065 35.6154C118.733 35.781 118.309 35.8638 117.793 35.8638C117.09 35.8638 116.524 35.7313 116.093 35.4663C115.663 35.2079 115.447 34.8171 115.447 34.2937C115.447 33.8498 115.663 33.4656 116.093 33.141C115.961 33.0814 115.845 33.0184 115.745 32.9522C115.653 32.8859 115.57 32.8164 115.497 32.7435V32.5149L116.362 31.6007C115.977 31.2628 115.785 30.8289 115.785 30.2989C115.785 29.9677 115.865 29.6662 116.024 29.3946C116.189 29.123 116.421 28.9077 116.719 28.7487C117.017 28.5897 117.379 28.5102 117.803 28.5102C118.081 28.5102 118.339 28.5499 118.578 28.6294H120.446V29.4045L119.601 29.4642C119.734 29.7159 119.8 29.9942 119.8 30.2989C119.8 30.6302 119.72 30.9316 119.561 31.2032C119.402 31.4748 119.171 31.6901 118.866 31.8491C118.568 32.0081 118.213 32.0876 117.803 32.0876ZM117.803 31.1138C118.061 31.1138 118.273 31.0442 118.439 30.9051C118.611 30.766 118.697 30.5672 118.697 30.3088C118.697 30.0505 118.611 29.8517 118.439 29.7126C118.273 29.5735 118.061 29.5039 117.803 29.5039C117.531 29.5039 117.312 29.5735 117.147 29.7126C116.981 29.8517 116.898 30.0505 116.898 30.3088C116.898 30.5672 116.981 30.766 117.147 30.9051C117.312 31.0442 117.531 31.1138 117.803 31.1138ZM116.61 34.1645C116.61 34.4096 116.723 34.5918 116.948 34.7111C117.18 34.837 117.461 34.8999 117.793 34.8999C118.111 34.8999 118.369 34.8336 118.568 34.7011C118.766 34.5753 118.866 34.403 118.866 34.1844C118.866 34.0055 118.8 33.8565 118.667 33.7372C118.541 33.618 118.286 33.5451 117.902 33.5186C117.63 33.4987 117.379 33.4689 117.147 33.4292C116.955 33.5352 116.815 33.6511 116.729 33.777C116.65 33.9028 116.61 34.032 116.61 34.1645ZM123.771 33.5583V26.6022H125.282L127.498 31.0144L129.684 26.6022H131.194V33.5583H129.922V28.7586L127.984 32.5646H126.981L125.043 28.7586V33.5583H123.771ZM134.213 33.6776C133.789 33.6776 133.442 33.6113 133.17 33.4789C132.898 33.3397 132.696 33.1575 132.564 32.9323C132.431 32.7071 132.365 32.4586 132.365 32.187C132.365 31.7299 132.544 31.3589 132.902 31.074C133.259 30.7891 133.796 30.6467 134.511 30.6467H135.764V30.5275C135.764 30.1896 135.667 29.9412 135.475 29.7822C135.283 29.6232 135.045 29.5437 134.76 29.5437C134.501 29.5437 134.276 29.6066 134.084 29.7325C133.892 29.8517 133.773 30.0306 133.726 30.2691H132.484C132.517 29.9114 132.637 29.6 132.842 29.335C133.054 29.07 133.326 28.8679 133.657 28.7288C133.988 28.5831 134.359 28.5102 134.77 28.5102C135.472 28.5102 136.025 28.6857 136.429 29.0369C136.833 29.388 137.036 29.8849 137.036 30.5275V33.5583H135.952L135.833 32.7634C135.687 33.0284 135.482 33.247 135.217 33.4192C134.959 33.5915 134.624 33.6776 134.213 33.6776ZM134.501 32.6839C134.866 32.6839 135.147 32.5646 135.346 32.3261C135.552 32.0876 135.681 31.7928 135.734 31.4417H134.651C134.313 31.4417 134.071 31.5046 133.925 31.6305C133.779 31.7498 133.706 31.8988 133.706 32.0777C133.706 32.2698 133.779 32.4189 133.925 32.5249C134.071 32.6309 134.263 32.6839 134.501 32.6839ZM140.664 33.6776C140.161 33.6776 139.717 33.5683 139.333 33.3497C138.948 33.131 138.644 32.8263 138.418 32.4354C138.2 32.0446 138.09 31.5974 138.09 31.0939C138.09 30.5904 138.2 30.1432 138.418 29.7524C138.644 29.3615 138.948 29.0567 139.333 28.8381C139.717 28.6195 140.161 28.5102 140.664 28.5102C141.293 28.5102 141.823 28.6758 142.254 29.0071C142.685 29.3317 142.96 29.7822 143.079 30.3585H141.737C141.671 30.12 141.539 29.9345 141.34 29.802C141.148 29.6629 140.919 29.5934 140.654 29.5934C140.303 29.5934 140.005 29.7259 139.76 29.9909C139.515 30.2558 139.392 30.6235 139.392 31.0939C139.392 31.5643 139.515 31.9319 139.76 32.1969C140.005 32.4619 140.303 32.5944 140.654 32.5944C140.919 32.5944 141.148 32.5282 141.34 32.3957C141.539 32.2632 141.671 32.0744 141.737 31.8293H143.079C142.96 32.3857 142.685 32.8329 142.254 33.1708C141.823 33.5087 141.293 33.6776 140.664 33.6776ZM144.208 33.5583V26.4035H145.48V29.3847C145.645 29.1131 145.867 28.9011 146.146 28.7487C146.43 28.5897 146.755 28.5102 147.119 28.5102C147.729 28.5102 148.199 28.7023 148.531 29.0866C148.868 29.4708 149.037 30.0339 149.037 30.7759V33.5583H147.775V30.8951C147.775 30.4712 147.689 30.1465 147.517 29.9213C147.351 29.696 147.086 29.5834 146.722 29.5834C146.364 29.5834 146.066 29.7093 145.828 29.961C145.596 30.2128 145.48 30.5639 145.48 31.0144V33.5583H144.208ZM150.939 27.8643C150.708 27.8643 150.515 27.7947 150.363 27.6556C150.217 27.5165 150.144 27.3409 150.144 27.1289C150.144 26.9169 150.217 26.7447 150.363 26.6122C150.515 26.473 150.708 26.4035 150.939 26.4035C151.171 26.4035 151.36 26.473 151.506 26.6122C151.658 26.7447 151.734 26.9169 151.734 27.1289C151.734 27.3409 151.658 27.5165 151.506 27.6556C151.36 27.7947 151.171 27.8643 150.939 27.8643ZM150.303 33.5583V28.6294H151.575V33.5583H150.303ZM152.903 33.5583V28.6294H154.026L154.125 29.4642C154.278 29.1727 154.496 28.9408 154.781 28.7686C155.073 28.5963 155.414 28.5102 155.805 28.5102C156.414 28.5102 156.888 28.7023 157.226 29.0866C157.564 29.4708 157.733 30.0339 157.733 30.7759V33.5583H156.461V30.8951C156.461 30.4712 156.374 30.1465 156.202 29.9213C156.03 29.696 155.762 29.5834 155.397 29.5834C155.04 29.5834 154.745 29.7093 154.513 29.961C154.288 30.2128 154.175 30.5639 154.175 31.0144V33.5583H152.903ZM161.344 33.6776C160.847 33.6776 160.406 33.5716 160.022 33.3596C159.638 33.1476 159.336 32.8495 159.118 32.4652C158.899 32.081 158.79 31.6371 158.79 31.1336C158.79 30.6235 158.896 30.1697 159.108 29.7722C159.326 29.3747 159.625 29.0667 160.002 28.8481C160.386 28.6228 160.837 28.5102 161.354 28.5102C161.837 28.5102 162.265 28.6162 162.636 28.8282C163.007 29.0402 163.295 29.3317 163.5 29.7027C163.712 30.067 163.818 30.4745 163.818 30.925C163.818 30.9978 163.815 31.074 163.808 31.1535C163.808 31.233 163.805 31.3158 163.798 31.402H160.052C160.078 31.7862 160.211 32.0876 160.449 32.3062C160.695 32.5249 160.989 32.6342 161.334 32.6342C161.592 32.6342 161.807 32.5779 161.98 32.4652C162.159 32.346 162.291 32.1936 162.377 32.0081H163.669C163.576 32.3195 163.421 32.6044 163.202 32.8627C162.99 33.1145 162.725 33.3132 162.407 33.459C162.096 33.6047 161.741 33.6776 161.344 33.6776ZM161.354 29.5437C161.042 29.5437 160.767 29.6331 160.529 29.812C160.29 29.9842 160.138 30.2492 160.072 30.607H162.526C162.506 30.2823 162.387 30.024 162.169 29.8319C161.95 29.6397 161.678 29.5437 161.354 29.5437ZM164.888 33.5583V28.6294H166.021L166.14 29.5536C166.319 29.2356 166.561 28.9839 166.865 28.7984C167.177 28.6063 167.541 28.5102 167.959 28.5102V29.8517H167.601C167.323 29.8517 167.074 29.8948 166.856 29.9809C166.637 30.067 166.465 30.2161 166.339 30.4281C166.22 30.6401 166.16 30.9349 166.16 31.3125V33.5583H164.888ZM169.444 35.7446L170.587 33.2304H170.289L168.371 28.6294H169.752L171.133 32.0976L172.574 28.6294H173.926L170.796 35.7446H169.444Z" fill="white"/>
<path d="M69.1279 49.6125L67.1678 44.3955H67.846L69.4931 48.9492L71.1551 44.3955H71.8184L69.8583 49.6125H69.1279ZM72.5337 49.6125V44.3955H73.1597V49.6125H72.5337ZM75.4882 49.6125V44.9097H73.9305V44.3955H77.6719V44.9097H76.1143V49.6125H75.4882ZM82.0708 49.702C81.6882 49.702 81.3553 49.6324 81.0721 49.4933C80.7889 49.3542 80.5703 49.1604 80.4163 48.912C80.2622 48.6635 80.1852 48.3754 80.1852 48.0474H80.8411C80.8411 48.2511 80.8883 48.4399 80.9827 48.6138C81.0771 48.7828 81.2137 48.9194 81.3926 49.0238C81.5764 49.1231 81.8025 49.1728 82.0708 49.1728C82.4236 49.1728 82.6969 49.0884 82.8907 48.9194C83.0844 48.7505 83.1813 48.5393 83.1813 48.2859C83.1813 48.0772 83.1366 47.9108 83.0472 47.7866C82.9577 47.6574 82.836 47.553 82.682 47.4735C82.5329 47.394 82.359 47.3245 82.1603 47.2649C81.9665 47.2052 81.7628 47.1382 81.5491 47.0636C81.1467 46.9245 80.8485 46.7531 80.6548 46.5494C80.461 46.3407 80.3641 46.0699 80.3641 45.737C80.3591 45.4587 80.4237 45.2128 80.5579 44.9991C80.692 44.7805 80.8808 44.6116 81.1243 44.4923C81.3727 44.3681 81.6659 44.306 82.0037 44.306C82.3366 44.306 82.6248 44.3681 82.8683 44.4923C83.1167 44.6166 83.308 44.788 83.4422 45.0066C83.5813 45.2252 83.6533 45.4737 83.6583 45.7519H83.0024C83.0024 45.6078 82.9652 45.4662 82.8907 45.3271C82.8161 45.183 82.7018 45.0662 82.5478 44.9768C82.3988 44.8874 82.2099 44.8426 81.9814 44.8426C81.6982 44.8377 81.4646 44.9097 81.2808 45.0588C81.1019 45.2078 81.0125 45.414 81.0125 45.6774C81.0125 45.901 81.0746 46.0724 81.1988 46.1916C81.328 46.3109 81.5069 46.4102 81.7354 46.4897C81.964 46.5643 82.2273 46.6512 82.5255 46.7506C82.7739 46.84 82.9975 46.9444 83.1962 47.0636C83.395 47.1829 83.549 47.3369 83.6583 47.5257C83.7726 47.7145 83.8297 47.9555 83.8297 48.2487C83.8297 48.4971 83.7651 48.7331 83.6359 48.9567C83.5068 49.1753 83.3105 49.3542 83.0472 49.4933C82.7888 49.6324 82.4633 49.702 82.0708 49.702ZM86.1411 49.6125C85.8032 49.6125 85.5374 49.5306 85.3436 49.3666C85.1498 49.2026 85.053 48.907 85.053 48.4797V46.445H84.412V45.9159H85.053L85.1349 45.029H85.679V45.9159H86.7671V46.445H85.679V48.4797C85.679 48.7132 85.7262 48.8722 85.8206 48.9567C85.915 49.0362 86.0815 49.0759 86.32 49.0759H86.7075V49.6125H86.1411ZM88.9115 49.702C88.4743 49.702 88.1265 49.5703 87.8681 49.307C87.6097 49.0387 87.4805 48.6288 87.4805 48.0772V45.9159H88.1066V48.0102C88.1066 48.7803 88.4221 49.1654 89.0531 49.1654C89.3761 49.1654 89.6419 49.0511 89.8506 48.8225C90.0642 48.589 90.1711 48.2586 90.1711 47.8313V45.9159H90.7971V49.6125H90.2307L90.186 48.9492C90.0717 49.1828 89.9003 49.3666 89.6717 49.5008C89.4481 49.6349 89.1947 49.702 88.9115 49.702ZM93.5045 49.702C93.1368 49.702 92.8139 49.6175 92.5356 49.4486C92.2624 49.2796 92.0487 49.0486 91.8947 48.7555C91.7456 48.4623 91.6711 48.1294 91.6711 47.7568C91.6711 47.3841 91.7481 47.0537 91.9021 46.7655C92.0562 46.4724 92.2698 46.2438 92.5431 46.0798C92.8164 45.9109 93.1393 45.8264 93.512 45.8264C93.8151 45.8264 94.0834 45.8885 94.3169 46.0128C94.5504 46.137 94.7318 46.3109 94.861 46.5345V44.2464H95.487V49.6125H94.9206L94.861 49.0014C94.7417 49.1803 94.5703 49.3418 94.3467 49.4858C94.1231 49.6299 93.8424 49.702 93.5045 49.702ZM93.5716 49.1579C93.82 49.1579 94.0387 49.1008 94.2275 48.9865C94.4212 48.8672 94.5703 48.7033 94.6746 48.4946C94.784 48.2859 94.8386 48.0425 94.8386 47.7642C94.8386 47.486 94.784 47.2425 94.6746 47.0338C94.5703 46.8251 94.4212 46.6636 94.2275 46.5494C94.0387 46.4301 93.82 46.3705 93.5716 46.3705C93.3281 46.3705 93.1095 46.4301 92.9157 46.5494C92.7269 46.6636 92.5779 46.8251 92.4686 47.0338C92.3642 47.2425 92.312 47.486 92.312 47.7642C92.312 48.0425 92.3642 48.2859 92.4686 48.4946C92.5779 48.7033 92.7269 48.8672 92.9157 48.9865C93.1095 49.1008 93.3281 49.1579 93.5716 49.1579ZM98.1696 49.702C97.8168 49.702 97.5038 49.6225 97.2305 49.4635C96.9572 49.2995 96.7411 49.0734 96.5821 48.7853C96.4281 48.4971 96.351 48.1567 96.351 47.7642C96.351 47.3767 96.4281 47.0388 96.5821 46.7506C96.7361 46.4574 96.9498 46.2314 97.223 46.0724C97.5013 45.9084 97.8218 45.8264 98.1845 45.8264C98.5422 45.8264 98.8503 45.9084 99.1087 46.0724C99.372 46.2314 99.5732 46.4425 99.7123 46.7059C99.8515 46.9692 99.921 47.2524 99.921 47.5555C99.921 47.6102 99.9185 47.6648 99.9136 47.7195C99.9136 47.7741 99.9136 47.8363 99.9136 47.9058H96.9696C96.9845 48.189 97.0491 48.425 97.1634 48.6138C97.2827 48.7977 97.4292 48.9368 97.6031 49.0312C97.782 49.1256 97.9708 49.1728 98.1696 49.1728C98.4279 49.1728 98.6441 49.1132 98.818 48.994C98.9919 48.8747 99.1186 48.7132 99.1981 48.5095H99.8167C99.7173 48.8523 99.526 49.138 99.2428 49.3666C98.9646 49.5902 98.6068 49.702 98.1696 49.702ZM98.1696 46.3556C97.8715 46.3556 97.6056 46.4475 97.3721 46.6314C97.1435 46.8102 97.0119 47.0736 96.9771 47.4214H99.3024C99.2875 47.0885 99.1732 46.8276 98.9596 46.6388C98.7459 46.45 98.4826 46.3556 98.1696 46.3556ZM100.751 49.6125V45.9159H101.317L101.355 46.5792C101.474 46.3457 101.645 46.1618 101.869 46.0277C102.092 45.8935 102.346 45.8264 102.629 45.8264C103.066 45.8264 103.414 45.9606 103.672 46.2289C103.936 46.4922 104.067 46.8997 104.067 47.4512V49.6125H103.441V47.5183C103.441 46.7481 103.123 46.363 102.487 46.363C102.169 46.363 101.904 46.4798 101.69 46.7133C101.481 46.9419 101.377 47.2698 101.377 47.6971V49.6125H100.751ZM106.477 49.6125C106.139 49.6125 105.873 49.5306 105.679 49.3666C105.485 49.2026 105.389 48.907 105.389 48.4797V46.445H104.748V45.9159H105.389L105.471 45.029H106.015V45.9159H107.103V46.445H106.015V48.4797C106.015 48.7132 106.062 48.8722 106.156 48.9567C106.251 49.0362 106.417 49.0759 106.656 49.0759H107.043V49.6125H106.477ZM112.196 49.702C111.684 49.702 111.242 49.5902 110.869 49.3666C110.502 49.138 110.216 48.8225 110.012 48.4201C109.808 48.0126 109.707 47.5406 109.707 47.004C109.707 46.4724 109.808 46.0053 110.012 45.6028C110.216 45.1954 110.502 44.8774 110.869 44.6489C111.242 44.4203 111.684 44.306 112.196 44.306C112.792 44.306 113.277 44.4501 113.649 44.7383C114.027 45.0215 114.268 45.419 114.372 45.9308H113.679C113.6 45.6078 113.436 45.3494 113.187 45.1557C112.944 44.9569 112.613 44.8575 112.196 44.8575C111.823 44.8575 111.498 44.9445 111.22 45.1184C110.941 45.2873 110.725 45.5333 110.571 45.8562C110.422 46.1742 110.348 46.5568 110.348 47.004C110.348 47.4512 110.422 47.8363 110.571 48.1592C110.725 48.4772 110.941 48.7232 111.22 48.8971C111.498 49.066 111.823 49.1505 112.196 49.1505C112.613 49.1505 112.944 49.0561 113.187 48.8672C113.436 48.6735 113.6 48.4176 113.679 48.0996H114.372C114.268 48.6014 114.027 48.994 113.649 49.2772C113.277 49.5604 112.792 49.702 112.196 49.702ZM115.235 49.6125V44.2464H115.861V46.5494C115.985 46.3208 116.161 46.1444 116.39 46.0202C116.618 45.891 116.867 45.8264 117.135 45.8264C117.562 45.8264 117.905 45.9606 118.164 46.2289C118.422 46.4922 118.551 46.8997 118.551 47.4512V49.6125H117.933V47.5183C117.933 46.7481 117.622 46.363 117.001 46.363C116.678 46.363 116.407 46.4798 116.189 46.7133C115.97 46.9419 115.861 47.2698 115.861 47.6971V49.6125H115.235ZM120.729 49.702C120.421 49.702 120.166 49.6498 119.962 49.5455C119.758 49.4411 119.607 49.302 119.507 49.1281C119.408 48.9542 119.358 48.7654 119.358 48.5617C119.358 48.1841 119.502 47.8934 119.79 47.6897C120.079 47.486 120.471 47.3841 120.968 47.3841H121.967V47.3394C121.967 47.0164 121.882 46.773 121.713 46.609C121.544 46.4401 121.318 46.3556 121.035 46.3556C120.792 46.3556 120.58 46.4177 120.402 46.5419C120.228 46.6612 120.118 46.8376 120.074 47.0711H119.433C119.458 46.8028 119.547 46.5767 119.701 46.3929C119.86 46.209 120.056 46.0699 120.29 45.9755C120.523 45.8761 120.772 45.8264 121.035 45.8264C121.552 45.8264 121.939 45.9656 122.198 46.2438C122.461 46.5171 122.593 46.8823 122.593 47.3394V49.6125H122.034L121.996 48.9492C121.892 49.1579 121.738 49.3368 121.534 49.4858C121.336 49.6299 121.067 49.702 120.729 49.702ZM120.826 49.1728C121.065 49.1728 121.269 49.1107 121.438 48.9865C121.611 48.8623 121.743 48.7008 121.833 48.5021C121.922 48.3033 121.967 48.0946 121.967 47.876V47.8685H121.02C120.652 47.8685 120.392 47.9331 120.238 48.0623C120.089 48.1865 120.014 48.3431 120.014 48.5319C120.014 48.7256 120.084 48.8822 120.223 49.0014C120.367 49.1157 120.568 49.1728 120.826 49.1728ZM123.532 51.2522V45.9159H124.098L124.158 46.527C124.277 46.3481 124.446 46.1867 124.665 46.0426C124.888 45.8985 125.172 45.8264 125.514 45.8264C125.882 45.8264 126.203 45.9109 126.476 46.0798C126.749 46.2488 126.96 46.4798 127.109 46.773C127.263 47.0661 127.34 47.399 127.34 47.7717C127.34 48.1443 127.263 48.4772 127.109 48.7704C126.96 49.0585 126.747 49.2871 126.468 49.456C126.195 49.62 125.875 49.702 125.507 49.702C125.204 49.702 124.933 49.6399 124.695 49.5157C124.461 49.3914 124.282 49.2175 124.158 48.994V51.2522H123.532ZM125.44 49.1579C125.688 49.1579 125.907 49.1008 126.096 48.9865C126.285 48.8672 126.434 48.7033 126.543 48.4946C126.652 48.2859 126.707 48.0425 126.707 47.7642C126.707 47.486 126.652 47.2425 126.543 47.0338C126.434 46.8251 126.285 46.6636 126.096 46.5494C125.907 46.4301 125.688 46.3705 125.44 46.3705C125.191 46.3705 124.973 46.4301 124.784 46.5494C124.595 46.6636 124.446 46.8251 124.337 47.0338C124.228 47.2425 124.173 47.486 124.173 47.7642C124.173 48.0425 124.228 48.2859 124.337 48.4946C124.446 48.7033 124.595 48.8672 124.784 48.9865C124.973 49.1008 125.191 49.1579 125.44 49.1579ZM129.527 49.6125C129.189 49.6125 128.923 49.5306 128.73 49.3666C128.536 49.2026 128.439 48.907 128.439 48.4797V46.445H127.798V45.9159H128.439L128.521 45.029H129.065V45.9159H130.153V46.445H129.065V48.4797C129.065 48.7132 129.112 48.8722 129.207 48.9567C129.301 49.0362 129.467 49.0759 129.706 49.0759H130.094V49.6125H129.527ZM132.509 49.702C132.156 49.702 131.843 49.6225 131.57 49.4635C131.296 49.2995 131.08 49.0734 130.921 48.7853C130.767 48.4971 130.69 48.1567 130.69 47.7642C130.69 47.3767 130.767 47.0388 130.921 46.7506C131.075 46.4574 131.289 46.2314 131.562 46.0724C131.84 45.9084 132.161 45.8264 132.524 45.8264C132.881 45.8264 133.189 45.9084 133.448 46.0724C133.711 46.2314 133.912 46.4425 134.051 46.7059C134.191 46.9692 134.26 47.2524 134.26 47.5555C134.26 47.6102 134.258 47.6648 134.253 47.7195C134.253 47.7741 134.253 47.8363 134.253 47.9058H131.309C131.324 48.189 131.388 48.425 131.502 48.6138C131.622 48.7977 131.768 48.9368 131.942 49.0312C132.121 49.1256 132.31 49.1728 132.509 49.1728C132.767 49.1728 132.983 49.1132 133.157 48.994C133.331 48.8747 133.458 48.7132 133.537 48.5095H134.156C134.056 48.8523 133.865 49.138 133.582 49.3666C133.304 49.5902 132.946 49.702 132.509 49.702ZM132.509 46.3556C132.211 46.3556 131.945 46.4475 131.711 46.6314C131.483 46.8102 131.351 47.0736 131.316 47.4214H133.642C133.627 47.0885 133.512 46.8276 133.299 46.6388C133.085 46.45 132.822 46.3556 132.509 46.3556ZM135.09 49.6125V45.9159H135.656L135.708 46.6239C135.823 46.3804 135.997 46.1867 136.23 46.0426C136.464 45.8985 136.752 45.8264 137.095 45.8264V46.4823H136.923C136.705 46.4823 136.503 46.522 136.32 46.6015C136.136 46.6761 135.989 46.8053 135.88 46.9891C135.771 47.1729 135.716 47.4263 135.716 47.7493V49.6125H135.09Z" fill="white"/>
</g>
<defs>
<clipPath id="clip0_724_303">
<rect width="175.693" height="62.0351" fill="white"/>
</clipPath>
</defs>
</svg>
