<svg width="24" height="24" viewBox="0 0 24 24" fill="none" xmlns="http://www.w3.org/2000/svg">
<path d="M23.7042 11.9984C23.7042 18.4633 18.4635 23.7041 11.9982 23.7041C5.53345 23.7041 0.292725 18.4633 0.292725 11.9984C0.292725 5.53367 5.53345 0.292317 11.9982 0.292317C18.4635 0.292317 23.7042 5.53367 23.7042 11.9984Z" fill="#FAB80A"/>
<path d="M21.258 11.9985C21.258 17.112 17.1125 21.2575 11.9987 21.2575C6.88491 21.2575 2.73938 17.112 2.73938 11.9985C2.73938 6.88472 6.88491 2.73919 11.9987 2.73919C17.1125 2.73919 21.258 6.88472 21.258 11.9985Z" fill="#F79011"/>
<path d="M11.024 16.4628C10.8624 16.4628 10.7312 16.5939 10.7312 16.7556V18.0163C10.7312 18.1779 10.8624 18.309 11.024 18.309C11.1856 18.309 11.3168 18.1779 11.3168 18.0163V16.7556C11.3168 16.5939 11.1856 16.4628 11.024 16.4628Z" fill="#F79011"/>
<path d="M12.9738 16.4628C12.8122 16.4628 12.681 16.5939 12.681 16.7556V18.0163C12.681 18.1779 12.8122 18.309 12.9738 18.309C13.1354 18.309 13.2666 18.1779 13.2666 18.0163V16.7556C13.2666 16.5939 13.1354 16.4628 12.9738 16.4628Z" fill="#F79011"/>
<path d="M12.7624 15.075H11.2352V14.4303C11.2352 14.0087 11.5772 13.6667 11.9988 13.6667C12.4204 13.6667 12.7624 14.0087 12.7624 14.4303V15.075Z" fill="#F79011"/>
<path d="M3.93978 3.50903C3.79803 3.64311 3.65948 3.78102 3.52476 3.92213C3.52476 3.92277 3.5254 3.92341 3.5254 3.92341L4.31649 4.71386C4.37331 4.77132 4.44802 4.80005 4.52336 4.80005C4.59806 4.80005 4.6734 4.77132 4.73087 4.71386C4.84452 4.59957 4.84452 4.41441 4.73087 4.30012L3.93978 3.50903ZM4.31649 19.2504L3.5254 20.0409C3.52029 20.0467 3.51582 20.0531 3.51071 20.059C3.64352 20.1995 3.78079 20.3365 3.92062 20.4706C3.92701 20.4648 3.93339 20.4607 3.93978 20.4548L4.73087 19.6643C4.84452 19.5495 4.84452 19.3645 4.73087 19.2504C4.61594 19.1356 4.43078 19.1356 4.31649 19.2504V19.2504ZM11.9982 22.2607C11.8366 22.2607 11.7057 22.3918 11.7057 22.5534V23.6712C11.7057 23.6812 11.7076 23.6906 11.7083 23.7006C11.8047 23.7029 11.9011 23.7041 11.9982 23.7041C12.0952 23.7041 12.1916 23.7029 12.288 23.7006C12.2893 23.6906 12.2912 23.6812 12.2912 23.6712V22.5534C12.2912 22.3918 12.1603 22.2607 11.9982 22.2607ZM19.6805 19.2504C19.5662 19.1356 19.3804 19.1356 19.2661 19.2504C19.1524 19.3645 19.1524 19.5495 19.2661 19.6643L20.0565 20.4548C20.0636 20.4607 20.0699 20.4648 20.0763 20.4706C20.2162 20.3365 20.3528 20.1995 20.4862 20.059C20.4805 20.0531 20.4767 20.0467 20.4709 20.0409L19.6805 19.2504ZM23.7004 11.6906C23.6959 11.6906 23.6921 11.6894 23.6876 11.6894H22.5703C22.4081 11.6894 22.2772 11.8202 22.2772 11.9818C22.2772 12.144 22.4081 12.2749 22.5703 12.2749H23.6876C23.6927 12.2749 23.6966 12.2736 23.7004 12.2736C23.7029 12.1823 23.7042 12.0903 23.7042 11.9984C23.7042 11.8956 23.7029 11.7928 23.7004 11.6906V11.6906ZM1.42669 11.6894H0.309329C0.30486 11.6894 0.301029 11.6906 0.296559 11.6906C0.294005 11.7928 0.292725 11.8956 0.292725 11.9984C0.292725 12.0903 0.294002 12.1823 0.295917 12.2736C0.300386 12.2736 0.304221 12.2749 0.309329 12.2749H1.42669C1.58822 12.2749 1.71975 12.144 1.71975 11.9818C1.71975 11.8202 1.58822 11.6894 1.42669 11.6894V11.6894ZM11.7057 0.296146V1.41095C11.7057 1.57249 11.8366 1.70338 11.9982 1.70338C12.1603 1.70338 12.2912 1.57249 12.2912 1.41095V0.296146C12.1942 0.29423 12.0965 0.292317 11.9982 0.292317C11.9005 0.292317 11.8028 0.29423 11.7057 0.296146ZM19.4736 4.80005C19.5483 4.80005 19.6236 4.77132 19.6805 4.71386L20.4709 3.92341C20.4715 3.92277 20.4715 3.92277 20.4722 3.92213C20.3375 3.78102 20.1989 3.64311 20.0572 3.50903C20.0572 3.50903 20.0572 3.50903 20.0565 3.50903L19.2661 4.30012C19.1524 4.41441 19.1524 4.59957 19.2661 4.71386C19.3235 4.77132 19.3989 4.80005 19.4736 4.80005" fill="#F79011"/>
<path d="M23.0912 15.8312C22.9369 15.7771 22.7645 15.8515 22.7074 15.9974C22.6517 16.139 22.592 16.2818 22.5304 16.4216C22.4663 16.5651 22.5382 16.7302 22.6899 16.7903C22.7275 16.8052 22.767 16.8123 22.8053 16.8123C22.922 16.8123 23.0328 16.7473 23.0801 16.6394C23.1462 16.4923 23.2085 16.3422 23.2675 16.1932C23.3245 16.0474 23.2454 15.8853 23.0912 15.8312Z" fill="#3A1F16"/>
<path d="M20.477 3.51581C20.4745 3.51389 20.4732 3.51132 20.4719 3.5094C20.4687 3.50684 20.4661 3.50492 20.4629 3.50236C18.2917 1.33883 15.299 -7.5118e-06 11.999 -7.5118e-06C8.6983 -7.5118e-06 5.7056 1.33883 3.53439 3.50236C3.53182 3.50492 3.52862 3.50684 3.52606 3.5094C3.52414 3.51132 3.52223 3.51389 3.5203 3.51581C1.34717 5.68894 0 8.68933 0 11.9983C0 18.6143 5.38225 23.9967 11.999 23.9967C16.0322 23.9967 19.7727 21.9876 22.0048 18.6223C22.0944 18.4876 22.0573 18.3059 21.9228 18.2165C21.7883 18.127 21.6059 18.1639 21.5169 18.2986C21.1468 18.8567 20.7325 19.3743 20.2811 19.8504L19.6805 19.2502C19.5665 19.1354 19.3815 19.1354 19.2669 19.2502C19.1523 19.3644 19.1523 19.5494 19.2669 19.6642L19.8681 20.2655C17.8378 22.2002 15.1505 23.3338 12.2916 23.4065V22.5533C12.2916 22.3917 12.1603 22.2605 11.999 22.2605C11.837 22.2605 11.7057 22.3917 11.7057 22.5533V23.4076C8.77578 23.3333 6.11603 22.1493 4.1337 20.2609L4.73109 19.6642C4.84506 19.5494 4.84506 19.3644 4.73109 19.2502C4.61583 19.1354 4.43079 19.1354 4.31682 19.2502L3.72007 19.8463C1.83762 17.8617 0.658856 15.2031 0.589064 12.2749H1.4272C1.58856 12.2749 1.71982 12.1437 1.71982 11.9817C1.71982 11.8203 1.58856 11.6891 1.4272 11.6891H0.589708C0.668464 8.76552 1.85107 6.11217 3.73608 4.13305L4.31682 4.71378C4.3738 4.77077 4.44872 4.79958 4.52363 4.79958C4.59854 4.79958 4.67346 4.77077 4.73109 4.71378C4.84506 4.59981 4.84506 4.41413 4.73109 4.29952L4.15034 3.71942C6.13139 1.84081 8.7841 0.662689 11.7057 0.589056V1.41054C11.7057 1.5719 11.837 1.70316 11.999 1.70316C12.1603 1.70316 12.2916 1.5719 12.2916 1.41054V0.589056C15.2132 0.662689 17.8659 1.84081 19.847 3.71942L19.2669 4.29952C19.1523 4.41413 19.1523 4.59981 19.2669 4.71378C19.3239 4.77077 19.3988 4.79958 19.4737 4.79958C19.5486 4.79958 19.6235 4.77077 19.6805 4.71378L20.2613 4.13305C22.1463 6.11217 23.3295 8.76552 23.4076 11.6891H22.5701C22.4081 11.6891 22.2775 11.8203 22.2775 11.9817C22.2775 12.1437 22.4081 12.2749 22.5701 12.2749H23.4083C23.3935 12.9011 23.3276 13.5267 23.2117 14.1372C23.1816 14.296 23.286 14.4493 23.4448 14.4793C23.6036 14.5094 23.7566 14.4051 23.7873 14.2463C23.9263 13.5101 23.9973 12.7539 23.9973 11.9983C23.9973 8.68933 22.6508 5.68894 20.477 3.51581Z" fill="#3A1F16"/>
<path d="M11.9987 20.9646C7.05458 20.9646 3.03216 16.9423 3.03216 11.9979C3.03216 7.05377 7.05458 3.03197 11.9987 3.03197C16.9428 3.03197 20.9658 7.05377 20.9658 11.9979C20.9658 16.9423 16.9428 20.9646 11.9987 20.9646ZM11.9987 2.44609C6.73194 2.44609 2.4469 6.73113 2.4469 11.9979C2.4469 17.2651 6.73194 21.5501 11.9987 21.5501C17.266 21.5501 21.5511 17.2651 21.5511 11.9979C21.5511 6.73113 17.266 2.44609 11.9987 2.44609Z" fill="#3A1F16"/>
<path d="M23.6997 12.0757C23.6997 18.4935 18.4585 23.6996 11.9889 23.6996C5.51922 23.6996 0.278003 18.4935 0.278003 12.0757C0.278003 5.65781 5.51922 0.451678 11.9889 0.451678C18.4585 0.451678 23.6997 5.65781 23.6997 12.0757Z" stroke="#3A1F16" stroke-width="0.556005"/>
<path d="M9.74314 10.3629C9.97937 10.3629 10.2059 10.269 10.373 10.102C10.54 9.93494 10.6339 9.70839 10.6339 9.47215C10.6339 9.23592 10.54 9.00936 10.373 8.84232C10.2059 8.67527 9.97937 8.58143 9.74314 8.58143C9.50691 8.58143 9.28035 8.67527 9.1133 8.84232C8.94626 9.00936 8.85242 9.23592 8.85242 9.47215C8.85242 9.70839 8.94626 9.93494 9.1133 10.102C9.28035 10.269 9.50691 10.3629 9.74314 10.3629V10.3629ZM15.3168 9.47215C15.3168 9.70839 15.2229 9.93494 15.0559 10.102C14.8888 10.269 14.6623 10.3629 14.426 10.3629C14.1898 10.3629 13.9633 10.269 13.7962 10.102C13.6292 9.93494 13.5353 9.70839 13.5353 9.47215C13.5353 9.23592 13.6292 9.00936 13.7962 8.84232C13.9633 8.67527 14.1898 8.58143 14.426 8.58143C14.6623 8.58143 14.8888 8.67527 15.0559 8.84232C15.2229 9.00936 15.3168 9.23592 15.3168 9.47215V9.47215Z" fill="#F79011"/>
<path d="M17.0472 5.84992V6.08124C17.0472 6.58996 16.8804 7.05334 16.6015 7.43034C16.9599 7.90534 17.1751 8.49512 17.1751 9.13263C17.1751 9.80148 17.041 10.3487 16.7855 10.7906C17.0169 11.375 17.1442 12.0118 17.1442 12.6779C17.1442 14.4835 16.2105 16.0708 14.8009 16.9834C14.9705 17.3071 15.085 17.6643 15.1317 18.0423L17.0472 5.84992ZM17.0472 5.84992H16.8159M17.0472 5.84992H16.8159M9.2861 17.0161C9.12509 17.331 9.0164 17.6768 8.9711 18.0423L8.9711 18.0423C8.91027 18.5335 9.31814 18.8797 9.72981 18.8797H14.373C14.7847 18.8797 15.1926 18.5335 15.1317 18.0423L9.2861 17.0161ZM9.2861 17.0161C8.5867 16.5757 8.00319 15.9719 7.58665 15.2554C7.13159 14.4727 6.89207 13.5833 6.89246 12.6779L9.2861 17.0161ZM16.8159 5.84992H14.3245C13.8189 5.84992 13.3526 6.01656 12.976 6.29528H11.1224C10.7458 6.01656 10.2795 5.84992 9.7739 5.84992H7.28693H7.05542M16.8159 5.84992H7.05542M7.05542 5.84992L7.05561 6.08143M7.05542 5.84992L7.05561 6.08143M7.05561 6.08143C7.05601 6.56891 7.21318 7.04149 7.50113 7.43058C7.14288 7.90554 6.92774 8.49523 6.92774 9.13263C6.92774 9.76676 7.04819 10.2918 7.27919 10.7215M7.05561 6.08143L7.27919 10.7215M8.32111 11.7509C8.38945 11.7895 8.45978 11.8259 8.53197 11.8601L8.32111 11.7509ZM8.32111 11.7509C8.34131 11.6744 8.3642 11.5985 8.38975 11.5235L8.32111 11.7509ZM7.27919 10.7215C7.02971 11.3248 6.89247 11.9855 6.89246 12.6778L7.27919 10.7215ZM14.2059 17.9761H9.89723C9.93715 17.7833 10.0025 17.5996 10.0898 17.4285C10.3739 17.544 10.6704 17.6346 10.9768 17.6981C11.3058 17.8253 11.6539 17.8964 12.0139 17.8964L12.0149 17.8964C12.3662 17.895 12.7143 17.829 13.0417 17.7017C13.3744 17.6342 13.6958 17.5345 14.002 17.4059C14.096 17.5856 14.1646 17.7775 14.2059 17.9761ZM12.4784 10.4976H11.6955C11.7749 10.3633 11.921 10.2728 12.0876 10.2723C12.2555 10.2747 12.4 10.3644 12.4784 10.4976ZM10.6022 10.3313C10.3743 10.5592 10.0653 10.6872 9.74303 10.6872C9.4208 10.6872 9.11175 10.5592 8.8839 10.3313C8.65604 10.1034 8.52803 9.7944 8.52803 9.47216C8.52803 9.14992 8.65604 8.84088 8.8839 8.61302C9.11175 8.38516 9.42079 8.25715 9.74303 8.25715C10.0653 8.25715 10.3743 8.38516 10.6022 8.61302C10.83 8.84088 10.958 9.14992 10.958 9.47216C10.958 9.7944 10.83 10.1034 10.6022 10.3313ZM15.2851 10.3313C15.0572 10.5592 14.7482 10.6872 14.4259 10.6872C14.1037 10.6872 13.7947 10.5592 13.5668 10.3313C13.3389 10.1034 13.2109 9.7944 13.2109 9.47216C13.2109 9.14992 13.3389 8.84088 13.5668 8.61302C13.7947 8.38516 14.1037 8.25715 14.4259 8.25715C14.7482 8.25715 15.0572 8.38516 15.2851 8.61302C15.5129 8.84088 15.6409 9.14992 15.6409 9.47216C15.6409 9.7944 15.5129 10.1034 15.2851 10.3313Z" fill="#FCF3C5" stroke="#3A1F16" stroke-width="0.462638"/>
<path d="M13.7263 17.8095L13.987 17.6357L10.3382 17.8095L10.1644 17.6357" stroke="#3A1F16" stroke-width="0.173752"/>
</svg>
