<svg width="32" height="32" viewBox="0 0 32 32" fill="none" xmlns="http://www.w3.org/2000/svg">
<path fill-rule="evenodd" clip-rule="evenodd" d="M0 16C0 7.16344 7.16344 0 16 0C24.8366 0 32 7.16344 32 16C32 24.8366 24.8366 32 16 32C7.16344 32 0 24.8366 0 16Z" fill="#FFF4EA"/>
<path d="M22.2381 10.1197C21.0906 9.60221 19.8606 9.21971 18.5744 9.00221C18.5629 9.00001 18.551 9.00143 18.5404 9.00627C18.5298 9.01111 18.521 9.01912 18.5151 9.02921C18.3576 9.30596 18.1821 9.66671 18.0591 9.95171C16.6949 9.74789 15.308 9.74789 13.9439 9.95171C13.8069 9.63586 13.6524 9.32788 13.4811 9.02921C13.4753 9.019 13.4665 9.0108 13.4559 9.00571C13.4454 9.00062 13.4335 8.99887 13.4219 9.00071C12.1364 9.21821 10.9064 9.60071 9.75811 10.119C9.74823 10.1231 9.73986 10.1302 9.73411 10.1392C7.40011 13.5705 6.76036 16.917 7.07461 20.2215C7.07548 20.2296 7.078 20.2374 7.08199 20.2445C7.08599 20.2516 7.09139 20.2578 7.09786 20.2627C8.46015 21.2545 9.97961 22.0101 11.5926 22.4977C11.6039 22.5012 11.6159 22.5012 11.6271 22.4977C11.6384 22.4942 11.6483 22.4874 11.6556 22.4782C12.0027 22.014 12.3103 21.5215 12.5751 21.006C12.5788 20.9989 12.5809 20.9912 12.5813 20.9832C12.5817 20.9753 12.5804 20.9673 12.5775 20.9599C12.5746 20.9526 12.5701 20.9459 12.5644 20.9403C12.5587 20.9348 12.5519 20.9306 12.5444 20.928C12.0599 20.7455 11.5904 20.5253 11.1404 20.2695C11.1323 20.2648 11.1255 20.2583 11.1205 20.2504C11.1156 20.2425 11.1127 20.2335 11.1121 20.2242C11.1115 20.2149 11.1132 20.2056 11.1171 20.1972C11.121 20.1887 11.1269 20.1813 11.1344 20.1757C11.2289 20.106 11.3234 20.0332 11.4134 19.9605C11.4215 19.9539 11.4312 19.9498 11.4415 19.9484C11.4519 19.9471 11.4624 19.9487 11.4719 19.953C14.4171 21.276 17.6069 21.276 20.5176 19.953C20.5271 19.9484 20.5377 19.9466 20.5482 19.9478C20.5587 19.949 20.5686 19.9531 20.5769 19.9597C20.6669 20.0332 20.7606 20.106 20.8559 20.1757C20.8634 20.1812 20.8694 20.1885 20.8734 20.1969C20.8774 20.2053 20.8793 20.2145 20.8788 20.2238C20.8784 20.2331 20.8756 20.2421 20.8708 20.2501C20.866 20.2581 20.8594 20.2647 20.8514 20.2695C20.4029 20.5275 19.9364 20.7457 19.4466 20.9272C19.4391 20.9299 19.4322 20.9342 19.4265 20.9398C19.4208 20.9454 19.4163 20.9522 19.4134 20.9596C19.4105 20.9671 19.4092 20.9751 19.4096 20.9831C19.4101 20.991 19.4122 20.9989 19.4159 21.006C19.6859 21.5212 19.9949 22.0117 20.3346 22.4775C20.3417 22.487 20.3515 22.4942 20.3628 22.4979C20.3741 22.5017 20.3862 22.5019 20.3976 22.4985C22.0134 22.0122 23.5353 21.2563 24.8991 20.2627C24.9058 20.2581 24.9113 20.252 24.9155 20.2451C24.9196 20.2381 24.9222 20.2303 24.9231 20.2222C25.2981 16.4017 24.2946 13.0822 22.2614 10.1407C22.2564 10.1312 22.2481 10.1237 22.2381 10.1197ZM13.0154 18.2092C12.1289 18.2092 11.3976 17.4075 11.3976 16.4242C11.3976 15.4402 12.1146 14.6392 13.0154 14.6392C13.9229 14.6392 14.6474 15.447 14.6331 16.4242C14.6331 17.4082 13.9161 18.2092 13.0154 18.2092V18.2092ZM18.9966 18.2092C18.1094 18.2092 17.3789 17.4075 17.3789 16.4242C17.3789 15.4402 18.0951 14.6392 18.9966 14.6392C19.9041 14.6392 20.6286 15.447 20.6144 16.4242C20.6144 17.4082 19.9049 18.2092 18.9966 18.2092V18.2092Z" fill="#FF7A01"/>
</svg>
