<svg width="140" height="140" viewBox="0 0 140 140" fill="none" xmlns="http://www.w3.org/2000/svg">
<path d="M137.408 70.0421C137.408 107.25 107.246 137.412 70.0352 137.412C32.8286 137.412 2.6665 107.25 2.6665 70.0421C2.6665 32.8355 32.8286 2.6697 70.0352 2.6697C107.246 2.6697 137.408 32.8355 137.408 70.0421Z" fill="#FAB80A"/>
<path d="M123.329 70.043C123.329 99.4729 99.4696 123.332 70.0379 123.332C40.6063 123.332 16.7473 99.4729 16.7473 70.043C16.7473 40.6113 40.6063 16.7524 70.0379 16.7524C99.4696 16.7524 123.329 40.6113 123.329 70.043Z" fill="#F79011"/>
<path d="M70.0371 35.3439C52.7492 35.3439 38.7351 49.3614 38.7351 66.6459V81.9585C38.7351 85.0148 41.2147 87.4944 44.271 87.4944C49.199 87.4944 53.1947 91.49 53.1947 96.4181V100.511C53.1947 102.812 55.0595 104.677 57.3595 104.677H82.7148C85.0182 104.677 86.8831 102.812 86.8831 100.511V96.4181C86.8831 91.49 90.8787 87.4944 95.8068 87.4944C98.8631 87.4944 101.339 85.0148 101.339 81.9585V66.6459C101.339 49.3614 87.3251 35.3439 70.0371 35.3439" fill="#FCF3C5"/>
<path d="M64.4281 95.7366C63.4979 95.7366 62.743 96.4915 62.743 97.4216V104.677C62.743 105.608 63.4979 106.362 64.4281 106.362C65.3582 106.362 66.1131 105.608 66.1131 104.677V97.4216C66.1131 96.4915 65.3582 95.7366 64.4281 95.7366Z" fill="#F79011"/>
<path d="M75.6504 95.7366C74.7202 95.7366 73.9653 96.4915 73.9653 97.4216V104.677C73.9653 105.608 74.7202 106.362 75.6504 106.362C76.5805 106.362 77.3354 105.608 77.3354 104.677V97.4216C77.3354 96.4915 76.5805 95.7366 75.6504 95.7366Z" fill="#F79011"/>
<path d="M64.3809 67.0775C64.3809 70.9935 61.2029 74.1715 57.2869 74.1715C53.3675 74.1715 50.1929 70.9935 50.1929 67.0775C50.1929 63.1581 53.3675 59.9835 57.2869 59.9835C61.2029 59.9835 64.3809 63.1581 64.3809 67.0775Z" fill="#F79011"/>
<path d="M89.8365 67.0761C89.8365 70.9935 86.66 74.17 82.7426 74.17C78.8218 74.17 75.6487 70.9935 75.6487 67.0761C75.6487 63.1588 78.8218 59.9822 82.7426 59.9822C86.66 59.9822 89.8365 63.1588 89.8365 67.0761Z" fill="#F79011"/>
<path d="M74.4338 87.7495H65.6447V84.039C65.6447 81.6126 67.6128 79.6445 70.0392 79.6445C72.4657 79.6445 74.4338 81.6126 74.4338 84.039V87.7495Z" fill="#F79011"/>
<path d="M23.6565 21.183C22.8408 21.9547 22.0433 22.7484 21.268 23.5605C21.268 23.5642 21.2716 23.5679 21.2716 23.5679L25.8246 28.1172C26.1517 28.4479 26.5816 28.6133 27.0153 28.6133C27.4452 28.6133 27.8788 28.4479 28.2095 28.1172C28.8636 27.4594 28.8636 26.3937 28.2095 25.736L23.6565 21.183ZM25.8246 111.78L21.2716 116.329C21.2422 116.363 21.2165 116.4 21.1871 116.434C21.9515 117.242 22.7415 118.031 23.5463 118.803C23.5831 118.769 23.6198 118.745 23.6565 118.712L28.2095 114.162C28.8636 113.502 28.8636 112.437 28.2095 111.78C27.5481 111.119 26.4824 111.119 25.8246 111.78V111.78ZM70.0352 129.105C69.1055 129.105 68.3522 129.86 68.3522 130.79V137.223C68.3522 137.281 68.3633 137.335 68.3669 137.392C68.9218 137.405 69.4767 137.412 70.0352 137.412C70.5938 137.412 71.1487 137.405 71.7036 137.392C71.7109 137.335 71.722 137.281 71.722 137.223V130.79C71.722 129.86 70.9686 129.105 70.0352 129.105ZM114.25 111.78C113.592 111.119 112.522 111.119 111.865 111.78C111.211 112.437 111.211 113.502 111.865 114.162L116.414 118.712C116.454 118.745 116.491 118.769 116.528 118.803C117.333 118.031 118.119 117.242 118.887 116.434C118.854 116.4 118.832 116.363 118.799 116.329L114.25 111.78ZM137.386 68.2709C137.36 68.2709 137.338 68.2636 137.312 68.2636H130.881C129.948 68.2636 129.195 69.0169 129.195 69.9466C129.195 70.88 129.948 71.6333 130.881 71.6333H137.312C137.342 71.6333 137.364 71.6259 137.386 71.6259C137.4 71.1004 137.408 70.5713 137.408 70.0421C137.408 69.4505 137.4 68.8589 137.386 68.2709V68.2709ZM9.19284 68.2636H2.76207C2.73635 68.2636 2.7143 68.2709 2.68857 68.2709C2.67387 68.8589 2.6665 69.4505 2.6665 70.0421C2.6665 70.5713 2.67385 71.1004 2.68488 71.6259C2.7106 71.6259 2.73267 71.6333 2.76207 71.6333H9.19284C10.1225 71.6333 10.8795 70.88 10.8795 69.9466C10.8795 69.0169 10.1225 68.2636 9.19284 68.2636V68.2636ZM68.3522 2.69174V9.10783C68.3522 10.0375 69.1055 10.7908 70.0352 10.7908C70.9686 10.7908 71.722 10.0375 71.722 9.10783V2.69174C71.1634 2.68071 70.6012 2.6697 70.0352 2.6697C69.473 2.6697 68.9108 2.68071 68.3522 2.69174ZM113.059 28.6133C113.489 28.6133 113.923 28.4479 114.25 28.1172L118.799 23.5679C118.803 23.5642 118.803 23.5642 118.806 23.5605C118.031 22.7484 117.233 21.9547 116.418 21.183C116.418 21.183 116.418 21.183 116.414 21.183L111.865 25.736C111.211 26.3937 111.211 27.4594 111.865 28.1172C112.195 28.4479 112.629 28.6133 113.059 28.6133" fill="#F79011"/>
<path d="M133.816 91.879C132.944 91.5554 131.971 92.0005 131.648 92.8732C131.334 93.7207 130.997 94.5748 130.649 95.4113C130.287 96.2697 130.693 97.257 131.55 97.6165C131.762 97.7058 131.985 97.7483 132.201 97.7483C132.86 97.7483 133.486 97.3592 133.753 96.7138C134.127 95.8337 134.478 94.9361 134.811 94.0447C135.133 93.1723 134.687 92.2026 133.816 91.879" fill="#3A1F16"/>
<path d="M118.834 21.222C118.819 21.211 118.812 21.1963 118.804 21.1852C118.786 21.1705 118.771 21.1594 118.753 21.1447C106.256 8.69282 89.0324 0.987332 70.0396 0.987332C51.043 0.987332 33.819 8.69282 21.3229 21.1447C21.3082 21.1594 21.2898 21.1705 21.275 21.1852C21.264 21.1963 21.2529 21.211 21.2419 21.222C8.73474 33.7292 0.981323 50.9974 0.981323 70.0419C0.981323 108.119 31.958 139.097 70.0396 139.097C93.2519 139.097 114.78 127.534 127.626 108.165C128.142 107.39 127.928 106.344 127.155 105.83C126.381 105.315 125.33 105.527 124.818 106.302C122.688 109.514 120.304 112.493 117.706 115.233L114.249 111.779C113.593 111.118 112.528 111.118 111.869 111.779C111.209 112.436 111.209 113.501 111.869 114.161L115.329 117.622C103.644 128.757 88.1775 135.282 71.7237 135.7V130.79C71.7237 129.859 70.9682 129.104 70.0396 129.104C69.1073 129.104 68.3518 129.859 68.3518 130.79V135.706C51.4889 135.278 36.1812 128.464 24.7722 117.596L28.2103 114.161C28.8663 113.501 28.8663 112.436 28.2103 111.779C27.547 111.118 26.482 111.118 25.8261 111.779L22.3916 115.21C11.5575 103.788 4.77326 88.4864 4.37159 71.6338H9.19536C10.124 71.6338 10.8794 70.8784 10.8794 69.9461C10.8794 69.0174 10.124 68.262 9.19536 68.262H4.3753C4.82856 51.4359 11.6349 36.165 22.4837 24.7745L25.8261 28.1168C26.1541 28.4448 26.5852 28.6106 27.0164 28.6106C27.4475 28.6106 27.8787 28.4448 28.2103 28.1168C28.8663 27.4609 28.8663 26.3922 28.2103 25.7326L24.868 22.3939C36.2696 11.5819 51.5368 4.80138 68.3518 4.3776V9.10554C68.3518 10.0342 69.1073 10.7896 70.0396 10.7896C70.9682 10.7896 71.7237 10.0342 71.7237 9.10554V4.3776C88.5387 4.80138 103.806 11.5819 115.208 22.3939L111.869 25.7326C111.209 26.3922 111.209 27.4609 111.869 28.1168C112.197 28.4448 112.628 28.6106 113.059 28.6106C113.49 28.6106 113.921 28.4448 114.249 28.1168L117.592 24.7745C128.441 36.165 135.251 51.4359 135.7 68.262H130.88C129.948 68.262 129.196 69.0174 129.196 69.9461C129.196 70.8784 129.948 71.6338 130.88 71.6338H135.704C135.619 75.2378 135.24 78.8381 134.573 82.3518C134.399 83.2657 135 84.148 135.914 84.3208C136.828 84.494 137.709 83.8937 137.885 82.9794C138.685 78.7427 139.094 74.3903 139.094 70.0419C139.094 50.9974 131.344 33.7292 118.834 21.222" fill="#3A1F16"/>
<path d="M70.0377 121.646C41.5828 121.646 18.4323 98.4959 18.4323 70.0392C18.4323 41.5843 41.5828 18.4375 70.0377 18.4375C98.4926 18.4375 121.647 41.5843 121.647 70.0392C121.647 98.4959 98.4926 121.646 70.0377 121.646ZM70.0377 15.0655C39.7258 15.0655 15.064 39.7274 15.064 70.0392C15.064 100.354 39.7258 125.016 70.0377 125.016C100.353 125.016 125.015 100.354 125.015 70.0392C125.015 39.7274 100.353 15.0655 70.0377 15.0655Z" fill="#3A1F16"/>
<path d="M99.6554 81.9562C99.6554 84.0795 97.9304 85.8079 95.8071 85.8079C89.9568 85.8079 85.1975 90.5672 85.1975 96.4175V100.51C85.1975 101.878 84.0856 102.992 82.7174 102.992H77.3347V97.422C77.3347 96.4902 76.5796 95.7351 75.6513 95.7351C74.7195 95.7351 73.9644 96.4902 73.9644 97.422V102.992H66.112V97.422C66.112 96.4902 65.3569 95.7351 64.4286 95.7351C63.4969 95.7351 62.7417 96.4902 62.7417 97.422V102.992H57.3625C55.9943 102.992 54.8824 101.878 54.8824 100.51V96.4175C54.8824 90.5672 50.1231 85.8079 44.2728 85.8079C42.1495 85.8079 40.421 84.0795 40.421 81.9562V66.6462C40.421 50.3144 53.7082 37.0308 70.04 37.0308C86.3717 37.0308 99.6554 50.3144 99.6554 66.6462V81.9562ZM70.04 33.6605C51.8481 33.6605 37.0508 48.4578 37.0508 66.6462V81.9562C37.0508 85.9395 40.2929 89.1782 44.2728 89.1782C48.2631 89.1782 51.5121 92.4237 51.5121 96.4175V100.51C51.5121 103.737 54.1342 106.362 57.3625 106.362H82.7174C85.9422 106.362 88.5678 103.737 88.5678 100.51V96.4175C88.5678 92.4237 91.8168 89.1782 95.8071 89.1782C99.787 89.1782 103.026 85.9395 103.026 81.9562V66.6462C103.026 48.4578 88.2283 33.6605 70.04 33.6605Z" fill="#3A1F16"/>
<path d="M57.2868 72.4865C54.3043 72.4865 51.8779 70.06 51.8779 67.0775C51.8779 64.095 54.3043 61.6686 57.2868 61.6686C60.2694 61.6686 62.6958 64.095 62.6958 67.0775C62.6958 70.06 60.2694 72.4865 57.2868 72.4865ZM57.2868 58.2985C52.4441 58.2985 48.5078 62.2347 48.5078 67.0775C48.5078 71.917 52.4441 75.8566 57.2868 75.8566C62.1263 75.8566 66.0659 71.917 66.0659 67.0775C66.0659 62.2347 62.1263 58.2985 57.2868 58.2985Z" fill="#3A1F16"/>
<path d="M82.7446 72.4838C79.7619 72.4838 77.3358 70.0577 77.3358 67.075C77.3358 64.0924 79.7619 61.6662 82.7446 61.6662C85.7272 61.6662 88.1534 64.0924 88.1534 67.075C88.1534 70.0577 85.7272 72.4838 82.7446 72.4838ZM82.7446 58.2968C77.9025 58.2968 73.9663 62.2363 73.9663 67.075C73.9663 71.9172 77.9025 75.8567 82.7446 75.8567C87.5833 75.8567 91.5229 71.9172 91.5229 67.075C91.5229 62.2363 87.5833 58.2968 82.7446 58.2968Z" fill="#3A1F16"/>
<path d="M72.7488 86.0645H67.3297V84.0391C67.3297 82.5461 68.5429 81.3295 70.0392 81.3295C71.5322 81.3295 72.7488 82.5461 72.7488 84.0391V86.0645ZM70.0392 77.9595C66.686 77.9595 63.9596 80.6858 63.9596 84.0391V87.7495C63.9596 88.6797 64.7145 89.4346 65.6446 89.4346H74.4338C75.3639 89.4346 76.1188 88.6797 76.1188 87.7495V84.0391C76.1188 80.6858 73.3924 77.9595 70.0392 77.9595Z" fill="#3A1F16"/>
</svg>
