<svg width="32" height="32" viewBox="0 0 32 32" fill="none" xmlns="http://www.w3.org/2000/svg">
<path fill-rule="evenodd" clip-rule="evenodd" d="M0 16C0 7.16344 7.16344 0 16 0C24.8366 0 32 7.16344 32 16C32 24.8366 24.8366 32 16 32C7.16344 32 0 24.8366 0 16Z" fill="#FFF4EA"/>
<path d="M13.4555 27.4751H17.5713V17.2208H21.0128L21.5325 13.2315H17.5713V10.675C17.5713 9.52312 17.8944 8.73649 19.5519 8.73649H21.673V5.15452C21.3078 5.11238 20.0576 5 18.5967 5C15.5345 5 13.4555 6.86824 13.4555 10.2817V13.2315H10V17.2208H13.4555V27.4751Z" fill="#FF7A01"/>
</svg>
