<svg width="32" height="32" viewBox="0 0 32 32" fill="none" xmlns="http://www.w3.org/2000/svg">
<path fill-rule="evenodd" clip-rule="evenodd" d="M0 16C0 7.16344 7.16344 0 16 0C24.8366 0 32 7.16344 32 16C32 24.8366 24.8366 32 16 32C7.16344 32 0 24.8366 0 16Z" fill="#FFF4EA"/>
<path fill-rule="evenodd" clip-rule="evenodd" d="M6 7.58737C6 7.16637 6.16724 6.76262 6.46493 6.46493C6.76262 6.16724 7.16637 6 7.58736 6H23.4109C23.6195 5.99966 23.8262 6.04047 24.019 6.12011C24.2119 6.19974 24.3871 6.31662 24.5347 6.46407C24.6823 6.61151 24.7994 6.78662 24.8792 6.97937C24.9591 7.17213 25.0001 7.37873 25 7.58737V23.4109C25.0002 23.6196 24.9593 23.8263 24.8796 24.0191C24.7999 24.2119 24.6829 24.3872 24.5354 24.5348C24.3879 24.6824 24.2127 24.7994 24.0199 24.8793C23.8271 24.9591 23.6204 25.0001 23.4118 25H7.58736C7.37884 25 7.17235 24.9589 6.97971 24.8791C6.78706 24.7993 6.61203 24.6823 6.46462 24.5348C6.31721 24.3873 6.2003 24.2122 6.12058 24.0195C6.04086 23.8268 5.99989 23.6203 6 23.4118V7.58737ZM13.5205 13.2442H16.0933V14.5362C16.4647 13.7935 17.4147 13.125 18.8423 13.125C21.5791 13.125 22.2277 14.6044 22.2277 17.3188V22.3469H19.458V17.9372C19.458 16.3913 19.0867 15.519 18.1436 15.519C16.8352 15.519 16.2911 16.4595 16.2911 17.9372V22.3469H13.5205V13.2442ZM8.77055 22.2286H11.5411V13.125H8.77055V22.2277V22.2286ZM11.9375 10.1558C11.9427 10.393 11.9005 10.6289 11.8133 10.8496C11.7262 11.0703 11.5958 11.2713 11.4299 11.4409C11.264 11.6106 11.0658 11.7453 10.8471 11.8373C10.6284 11.9293 10.3935 11.9767 10.1563 11.9767C9.91898 11.9767 9.68409 11.9293 9.46538 11.8373C9.24667 11.7453 9.04854 11.6106 8.88262 11.4409C8.7167 11.2713 8.58633 11.0703 8.49916 10.8496C8.41199 10.6289 8.36978 10.393 8.375 10.1558C8.38525 9.69019 8.57742 9.24709 8.91036 8.92141C9.24329 8.59573 9.69051 8.41336 10.1563 8.41336C10.622 8.41336 11.0692 8.59573 11.4021 8.92141C11.7351 9.24709 11.9272 9.69019 11.9375 10.1558V10.1558Z" fill="#FF7A01"/>
</svg>
